<svg width="21" height="22" viewBox="0 0 21 22" fill="none" xmlns="http://www.w3.org/2000/svg">
<path fill-rule="evenodd" clip-rule="evenodd" d="M2.09996 2.41396C2.09996 2.3225 2.13683 2.23479 2.20247 2.17011C2.26811 2.10544 2.35713 2.06911 2.44995 2.06911H14.3497C14.4425 2.06911 14.5316 2.10544 14.5972 2.17011C14.6628 2.23479 14.6997 2.3225 14.6997 2.41396V13.0851C14.6997 13.3594 14.8103 13.6226 15.0072 13.8166C15.2042 14.0106 15.4712 14.1196 15.7497 14.1196C16.0282 14.1196 16.2952 14.0106 16.4921 13.8166C16.689 13.6226 16.7997 13.3594 16.7997 13.0851V2.41396C16.7997 1.77374 16.5415 1.15974 16.0821 0.707033C15.6226 0.254327 14.9995 0 14.3497 0H2.44995C1.80018 0 1.17703 0.254327 0.717574 0.707033C0.258119 1.15974 0 1.77374 0 2.41396V18.2771C0 19.6096 1.09758 20.6911 2.44995 20.6911H6.88786C7.16634 20.6911 7.4334 20.5821 7.63031 20.3881C7.82722 20.1941 7.93784 19.9309 7.93784 19.6565C7.93784 19.3822 7.82722 19.119 7.63031 18.925C7.4334 18.731 7.16634 18.622 6.88786 18.622H2.44995C2.35713 18.622 2.26811 18.5857 2.20247 18.521C2.13683 18.4563 2.09996 18.3686 2.09996 18.2771V2.41396ZM5.2499 5.51763C4.97142 5.51763 4.70436 5.62662 4.50745 5.82064C4.31054 6.01466 4.19992 6.2778 4.19992 6.55218C4.19992 6.82656 4.31054 7.08971 4.50745 7.28372C4.70436 7.47774 4.97142 7.58674 5.2499 7.58674H11.5498C11.8282 7.58674 12.0953 7.47774 12.2922 7.28372C12.4891 7.08971 12.5998 6.82656 12.5998 6.55218C12.5998 6.2778 12.4891 6.01466 12.2922 5.82064C12.0953 5.62662 11.8282 5.51763 11.5498 5.51763H5.2499ZM4.19992 10.6904C4.19992 10.416 4.31054 10.1529 4.50745 9.95886C4.70436 9.76484 4.97142 9.65585 5.2499 9.65585H8.04984C8.32831 9.65585 8.59538 9.76484 8.79229 9.95886C8.9892 10.1529 9.09982 10.416 9.09982 10.6904C9.09982 10.9648 8.9892 11.2279 8.79229 11.4219C8.59538 11.616 8.32831 11.725 8.04984 11.725H5.2499C4.97142 11.725 4.70436 11.616 4.50745 11.4219C4.31054 11.2279 4.19992 10.9648 4.19992 10.6904ZM20.6832 15.5694C20.7819 15.4744 20.8607 15.3613 20.915 15.2364C20.9694 15.1114 20.9982 14.9772 20.9999 14.8413C21.0016 14.7054 20.9761 14.5705 20.9249 14.4443C20.8737 14.3181 20.7977 14.2031 20.7014 14.1058C20.6051 14.0085 20.4902 13.9309 20.3634 13.8774C20.2367 13.8238 20.1004 13.7954 19.9625 13.7937C19.8245 13.7921 19.6876 13.8172 19.5596 13.8677C19.4315 13.9181 19.3147 13.993 19.216 14.0879L13.5797 19.5117L11.5932 17.5461C11.3945 17.3629 11.1314 17.2629 10.8594 17.2672C10.5873 17.2714 10.3276 17.3795 10.1348 17.5687C9.9421 17.7579 9.83142 18.0134 9.82611 18.2814C9.8208 18.5494 9.92129 18.809 10.1064 19.0055L12.8265 21.6953C13.0216 21.8884 13.2862 21.9979 13.5627 22C13.8393 22.002 14.1055 21.8965 14.3035 21.7063L20.6832 15.5694Z" fill="#3B4993"/>
</svg>
