<svg width="71" height="97" viewBox="0 0 71 97" fill="none" xmlns="http://www.w3.org/2000/svg">
<path d="M32.2168 60.7057C29.7086 58.2296 27.8522 55.4733 26.6474 52.4368C25.5271 49.3995 25.3965 46.1642 26.2559 42.7309C27.157 39.2549 29.3654 35.7263 32.8813 32.1453C36.1042 28.8627 39.4415 26.7427 42.8933 25.7851C46.3451 24.8275 49.7416 24.9067 53.0829 26.0229C56.5086 27.1385 59.7094 29.1653 62.6851 32.1034C64.7682 34.1601 66.4091 36.326 67.6079 38.6011C68.8486 40.8336 69.6658 42.8579 70.0595 44.6738C70.2793 45.8144 70.3087 46.8929 70.148 47.9095C69.9871 48.9261 69.488 49.8607 68.6509 50.7133L49.1883 70.5363L42.7479 64.1774L61.8338 44.738C61.5729 43.7247 61.1213 42.6071 60.479 41.3853C59.8787 40.1208 58.9195 38.8381 57.6016 37.5369C55.0085 34.9765 52.1089 33.7089 48.903 33.7338C45.7815 33.7581 42.6511 35.3689 39.512 38.5663C35.9962 42.1473 34.3132 45.439 34.463 48.4415C34.6129 51.4439 35.8568 54.0995 38.1949 56.408C39.9378 58.1294 41.6337 59.2156 43.2824 59.6685C44.9312 60.1203 46.4305 60.3416 47.7804 60.3311L42.6998 66.1454C41.3493 66.0713 39.7428 65.6184 37.8802 64.7868C36.0176 63.9551 34.1297 62.5955 32.2168 60.7057ZM37.8519 69.2925L44.1929 62.8334L50.5696 69.1297L43.9146 75.9082C41.1102 78.7642 38.2124 80.4369 35.2211 80.9252C32.1878 81.4574 29.1682 81.0358 26.1624 79.6637C23.1991 78.3332 20.3572 76.3245 17.6365 73.6386C15.4684 71.4974 13.8281 69.4167 12.7156 67.3944C11.5613 65.415 10.8324 63.8977 10.5288 62.8428C9.96372 60.689 10.309 58.9736 11.5647 57.6943C12.2762 56.9697 13.0319 56.4984 13.8317 56.2807C14.6322 56.1475 15.3706 56.1628 16.0468 56.3268C16.3549 57.9739 17.0655 59.8511 18.1787 61.9579C19.2499 64.1075 20.6996 66.0838 22.5276 67.889C25.2483 70.575 27.8755 72.0776 30.409 72.3969C32.9852 72.7569 35.4661 71.7228 37.8519 69.2925Z" fill="#3B4993"/>
<path d="M45.84 22.4935V31.3777H36.6229V22.8525C36.6229 19.8612 35.7876 17.6776 34.1173 16.3015C32.4469 14.9255 30.2097 14.2375 27.4058 14.2375C25.3177 14.2375 23.4385 14.5067 21.7681 15.0452C20.0978 15.5836 18.666 16.1818 17.4728 16.84V31.3777H8.25568V16.6605C8.25568 15.2845 8.52414 14.1777 9.06105 13.3401C9.65763 12.4427 10.5823 11.6051 11.8351 10.8274C13.5055 9.81037 15.6831 8.88313 18.3677 8.04553C21.0522 7.20793 24.0649 6.78918 27.4058 6.78918C33.1925 6.78918 37.6967 8.10532 40.9182 10.7377C44.1994 13.3102 45.84 17.2289 45.84 22.4935ZM8.25568 26.7113H17.4728V49.864C17.0552 49.9837 16.4586 50.1332 15.6831 50.3127C14.9672 50.4921 14.1618 50.5819 13.2669 50.5819C11.5965 50.5819 10.3437 50.2529 9.50849 49.5947C8.67328 48.9366 8.25568 47.8598 8.25568 46.3641V26.7113ZM36.6229 26.7113H45.84V49.864C45.4224 49.9837 44.8258 50.1332 44.0503 50.3127C43.2748 50.4921 42.4694 50.5819 41.6341 50.5819C39.904 50.5819 38.6215 50.2529 37.7862 49.5947C37.0107 48.9366 36.6229 47.8598 36.6229 46.3641V26.7113Z" fill="#3B4993"/>
</svg>
