<svg width="33" height="40" viewBox="0 0 33 40" fill="none" xmlns="http://www.w3.org/2000/svg">
<path d="M21.0202 27.7679V32.4777C21.0202 33.4747 20.7308 33.9732 20.1518 33.9732C19.8104 33.9732 19.4764 33.8095 19.1498 33.4821V26.7634C19.4764 26.436 19.8104 26.2723 20.1518 26.2723C20.7308 26.2723 21.0202 26.7708 21.0202 27.7679ZM28.5466 27.7902V28.817H26.5425V27.7902C26.5425 26.7783 26.8765 26.2723 27.5445 26.2723C28.2125 26.2723 28.5466 26.7783 28.5466 27.7902ZM7.03644 22.9241H9.41903V20.8259H2.47166V22.9241H4.80972V35.625H7.03644V22.9241ZM13.4494 35.625H15.4312V24.5982H13.4494V33.0357C13.004 33.6607 12.581 33.9732 12.1802 33.9732C11.913 33.9732 11.7571 33.817 11.7126 33.5045C11.6977 33.4598 11.6903 33.1994 11.6903 32.7232V24.5982H9.7085V33.3259C9.7085 34.0551 9.76788 34.5982 9.88664 34.9554C10.0648 35.506 10.4953 35.7812 11.1781 35.7812C11.8907 35.7812 12.6478 35.3274 13.4494 34.4196V35.625ZM23.002 32.3214V27.9241C23.002 26.8378 22.9352 26.1012 22.8016 25.7143C22.5493 24.881 22.0223 24.4643 21.2206 24.4643C20.4784 24.4643 19.7881 24.8661 19.1498 25.6696V20.8259H17.168V35.625H19.1498V34.5536C19.8178 35.372 20.5081 35.7812 21.2206 35.7812C22.0223 35.7812 22.5493 35.372 22.8016 34.5536C22.9352 34.1518 23.002 33.4077 23.002 32.3214ZM30.5283 32.0982V31.808H28.502C28.502 32.567 28.4872 33.0208 28.4575 33.1696C28.3536 33.7054 28.0567 33.9732 27.5668 33.9732C26.8839 33.9732 26.5425 33.4598 26.5425 32.433V30.4911H30.5283V28.192C30.5283 27.0164 30.3279 26.1533 29.9271 25.6027C29.3482 24.8438 28.5614 24.4643 27.5668 24.4643C26.5574 24.4643 25.7632 24.8438 25.1842 25.6027C24.7686 26.1533 24.5607 27.0164 24.5607 28.192V32.0536C24.5607 33.2292 24.776 34.0923 25.2065 34.6429C25.7854 35.4018 26.587 35.7812 27.6113 35.7812C28.6802 35.7812 29.4818 35.3869 30.0162 34.5982C30.2834 34.1964 30.4393 33.7946 30.4838 33.3929C30.5135 33.2589 30.5283 32.8274 30.5283 32.0982ZM16.9899 11.7188V7.03125C16.9899 6.00446 16.6707 5.49107 16.0324 5.49107C15.3941 5.49107 15.0749 6.00446 15.0749 7.03125V11.7188C15.0749 12.7604 15.3941 13.2812 16.0324 13.2812C16.6707 13.2812 16.9899 12.7604 16.9899 11.7188ZM33 28.4821C33 31.9643 32.807 34.5685 32.4211 36.2946C32.2132 37.1726 31.7827 37.9092 31.1296 38.5045C30.4764 39.0997 29.7193 39.442 28.8583 39.5312C26.1269 39.8438 22.0074 40 16.5 40C10.9926 40 6.87314 39.8438 4.1417 39.5312C3.2807 39.442 2.51991 39.0997 1.85931 38.5045C1.19872 37.9092 0.77193 37.1726 0.578947 36.2946C0.192982 34.628 0 32.0238 0 28.4821C0 25 0.192982 22.3958 0.578947 20.6696C0.786775 19.7917 1.21727 19.0551 1.87045 18.4598C2.52362 17.8646 3.28812 17.5149 4.16397 17.4107C6.88057 17.1131 10.9926 16.9643 16.5 16.9643C22.0074 16.9643 26.1269 17.1131 28.8583 17.4107C29.7193 17.5149 30.4801 17.8646 31.1407 18.4598C31.8013 19.0551 32.2281 19.7917 32.4211 20.6696C32.807 22.3363 33 24.9405 33 28.4821ZM10.7773 0H13.0486L10.3543 8.90625V14.9554H8.12753V8.90625C7.9197 7.80506 7.46694 6.22768 6.76923 4.17411C6.21997 2.64137 5.73752 1.25 5.32186 0H7.68219L9.26316 5.87054L10.7773 0ZM19.0162 7.43304V11.3393C19.0162 12.5446 18.8084 13.4226 18.3927 13.9732C17.8286 14.7321 17.0418 15.1116 16.0324 15.1116C15.0378 15.1116 14.2584 14.7321 13.6943 13.9732C13.2787 13.4077 13.0708 12.5298 13.0708 11.3393V7.43304C13.0708 6.24256 13.2787 5.37202 13.6943 4.82143C14.2584 4.0625 15.0378 3.68304 16.0324 3.68304C17.0418 3.68304 17.8286 4.0625 18.3927 4.82143C18.8084 5.37202 19.0162 6.24256 19.0162 7.43304ZM26.4757 3.81696V14.9554H24.4494V13.7277C23.6626 14.6503 22.8981 15.1116 22.1559 15.1116C21.473 15.1116 21.0351 14.8363 20.8421 14.2857C20.7233 13.9286 20.664 13.3705 20.664 12.6116V3.81696H22.6903V12.0089C22.6903 12.5 22.6977 12.7604 22.7125 12.7902C22.7571 13.1176 22.913 13.2812 23.1802 13.2812C23.581 13.2812 24.004 12.9613 24.4494 12.3214V3.81696H26.4757Z" fill="white"/>
</svg>
